<svg width="720" height="240" viewBox="0 0 720 240" fill="none" xmlns="http://www.w3.org/2000/svg" role="img" aria-label="이건빌 로고">
  <rect width="720" height="240" rx="36" fill="#F7F8FA"/>
  <g transform="translate(48 40)">
    <rect width="160" height="160" rx="36" fill="#2563EB"/>
    <path d="M39 118V48C39 39.1634 46.1634 32 55 32H105C113.837 32 121 39.1634 121 48V118" stroke="#FFFFFF" stroke-width="14" stroke-linecap="round" stroke-linejoin="round"/>
    <path d="M60 118V82C60 75.3726 65.3726 70 72 70H88C94.6274 70 100 75.3726 100 82V118" fill="#DBEAFE"/>
    <path d="M63 56H70" stroke="#FFFFFF" stroke-width="10" stroke-linecap="round"/>
    <path d="M78 56H84" stroke="#FFFFFF" stroke-width="10" stroke-linecap="round"/>
    <path d="M92 56H99" stroke="#FFFFFF" stroke-width="10" stroke-linecap="round"/>
    <path d="M31 123H129" stroke="#FFFFFF" stroke-width="14" stroke-linecap="round"/>
    <path d="M55 99L75 83L91 92L121 62" stroke="#2DD4BF" stroke-width="11" stroke-linecap="round" stroke-linejoin="round"/>
    <path d="M105 62H121V78" stroke="#2DD4BF" stroke-width="11" stroke-linecap="round" stroke-linejoin="round"/>
  </g>
  <text x="244" y="112" fill="#111827" font-family="Pretendard, Apple SD Gothic Neo, Segoe UI, sans-serif" font-size="56" font-weight="800" letter-spacing="0">이건빌</text>
  <text x="247" y="158" fill="#475569" font-family="Pretendard, Apple SD Gothic Neo, Segoe UI, sans-serif" font-size="28" font-weight="800" letter-spacing="0">임대 수익을 한눈에</text>
</svg>
